/* XPM */
static char *_f2ea3cc84ae406aab2ee9aa8720b4242eBasa76O3uoWRW6[] = {
/* columns rows colors chars-per-pixel */
"32 32 6 1 ",
"  c gray32",
". c gray38",
"X c #6E6D6D",
"o c #888788",
"O c gray65",
"+ c gray71",
/* pixels */
". ..OOOO X.. ..O+OO.. .oO++OOXXX",
"..XOO++oO  . .O+++OOO  .o+OOoOXo",
".XOO++oooo  .+++O+Oooo   oOooOOO",
".XO+o+O+oX  +O+O+OooXo . XoXXoOo",
"..OOoOOoXX .oOooOoOXXX.   XXoXoX",
"..OoOoOOX.. OOXooXooX. .. .XooXX",
" ..oooOXX.  oXXoooXX. .oOoO..XX ",
". ..oXXX.... oXXoXX...o+OOoo..  ",
"  .X...oO+O...ooX. ..++OOOOOo.. ",
" XX...oo+++Oo. ... .++O+OOOoo. .",
"o+oX.OoO++OoX.. . .oXo+++OooXX..",
"++OoXOO+O+oOXX.   .XoOO+oooXXXXo",
"O+OoXoOoOOOooXX. . .XXXOOXXXo.+O",
"+OOoXXXOoOoXoXX .....XOooXoX.Xo+",
"oOooX.XoooXXXX...o++O..oXooX.XXX",
"XooX...XoXXXX..OoO+++Oo.XoX. .oX",
"ooX.+OoO.X..X.OO++o+Ooo....  XXo",
"XX.+++OoXXX...oO+OoooOXo. ..  X.",
"XX+OOO+oXXoX XXoooOoX.oX  .oOO.X",
".Xo+OooXooXX. XXoXoXoXXX .oOOoo.",
"..OoooXXXoX.    .XXo..X.. oOO+OO",
"XX.XXXXXoX. XXoO..XXX... oO+O+++",
"oXX... . ..Xo+oO+O.. ..  o++++Oo",
"oXXXXX.   XoO+++OoOo..  o+o++OoO",
"XXXo+OoXX.XXoO++oOOOo...ooooooXo",
"X o+++OoXX X++OoOoOOoX. ooXoXXoX",
" .+O+ooOoX  OOoooXOoXXX..ooXXXX.",
" o++OOooXX. OoXoXooooXX....ooX..",
"oOO+ooXoXX...XXXXooXXX..OOo.. . ",
"oO+oXXXXX.X...XXooXoX..O+OOX..  ",
".ooXoX.XooXX ..XXX.. .o+++ooXX. ",
" .oX...XXoo.. .....  .oOO+OoooX."
};
