/* XPM */
static char *_86951f74ce6438af97acb2d0e3787110zILZoZAMXuZ4JH7[] = {
/* columns rows colors chars-per-pixel */
"32 32 13 1 ",
"  c #593D29",
". c #5B3D29",
"X c #68462E",
"o c #79553A",
"O c #497C28",
"+ c #6C6C6C",
"@ c #966C4A",
"# c #5F9F35",
"$ c #68A83E",
"% c #79B94F",
"& c #B9855C",
"* c #84C45A",
"= c gray53",
/* pixels */
"%*$#%#$%$#%#$%#$*%$$$%$##$%#$%$#",
"$#*#$%#$#*$#%*O%$%*$#$#$##%*$%$O",
"%#$O%*#%$%#O$%O$%#$*#$#%O$%$#$#O",
"#%#O$%O%#$OX$#.#$O*#O%O%O#$#O%O.",
"$$O.#$O#O#.X$.XO$O$O%*O*X%O#O#.X",
"O#.oX#X#$#Xo$.o.#O%O$#X$ .#O.OXo",
"XOXX&XXX#OoX#XoXO%$X#O.oXoOXXXo@",
"o.=+@&@o#XX @oooX#OXOX.@ooX@&XX&",
"&X+@&@&@o&@XooXo@OXoX@=+oXX@oXXo",
"oXXoo&@@o&@&oooX XoX@=++@  oX @X",
"XX.Xo@@oo@&@oX.XooXXo@oXXoX Xoo&",
"&oX.ooo@Xo&oX.o@@ooXXoX o@XXoo@@",
"@&oXXooX==oooX@&&@oXo@@@Xooooo&&",
"@@ooX@&+=+&oXo@&@&@o@&&@@oo@o@&@",
"Xo@X@&@&+@&@ooo@@@oXo&@o@oXo@&@@",
"oXXoo@@@o&@@@oXo@oXo@@@@oXoooo@X",
"ooXoooo@ooo@oX  o@&@o@ooXoXX Xoo",
"@@ooX@oooXooX o@Xoo@@oX@oo&oX@X@",
"&&@ooXooX@X XoXoooXoXX@o&&@@oX@&",
"&@&oo X@oX o@oooXoo@@oXo&@&&oX&@",
"@&@oXXo&&oo@&@oo@X@&@&o o&@o==o@",
"X@oX o&&@&oX@&@@o@&@&@@XXo@+=+Xo",
"ooooXo@@&o@o@o@o==o&@@Xo@ Xo+X  ",
"XoX@ooo@@@o@&&o+=+o@ooo  Xo@ooX ",
"o @&@oo@ooX&@&oX+XooXoXoX@XooXoo",
"oX@&&@ooXo@@@@oXo@oX Xo@oXXoXXoo",
"oo&@&@@ooXo@@o@oXo  oooXoXoo@@@@",
"@oo&@Xooo oo@@oXooXo@@&@XXo@&&@o",
"@oXX ooooX XooX@o@&@o&@o oX&@&&@",
"o@oXoo&@@oXo=  X&&@@@o@@oo o&@@@",
"&oXo@&@&&oo+=+Xo@&@oXooX@ooXoX@X",
"@@o@@@o&o@@@+XoX@@o@oXX@o@@&@o o"
};
