/* XPM */
static char *ad4a047b54274f28978e3370172dbe5czv5lPH6Znfmrv2IH[] = {
/* columns rows colors chars-per-pixel */
"32 32 11 1 ",
"  c #525D39",
". c gray32",
"X c #5A6D41",
"o c #627941",
"O c gray38",
"+ c #6E6D6D",
"@ c #738552",
"# c #7A8F55",
"$ c #888788",
"% c gray65",
"& c gray71",
/* pixels */
"o. o%%%%.+OO.OOXXooOO.O$%&&%%@@@",
"X X%%&&$%X   X  X#@oo..O$&%%$%@$",
"O o%&&$$$   XXX##@o@oX ..$%$$%%%",
"Oo%&$&%& X   X##@oooXoo .+$++$%$",
"OO%%$%%$XXX X@o#ooXX+XXo  ++$+$+",
"OO%$%$%%+X  @o@ooX $+ @ooo  $$++",
".OO$$$%++XX $+ooXX++ Xoo@o@o X .",
"O.OO$++ OX O.$XoX++OX o@o@@@@oo ",
"..O+OOOo  %OOO$XXO.OOo@@@@@@oXoX",
".++OOO o& &%$O.XOO.O&o%@oo@o@oXO",
"$& +O o@&&%$+OO.O.O$+$&@oXXooXXO",
"&&%  o@&%&$%++O...O+$%%@@$XoX+X$",
"%&%o  o$ %%$$++O.X X  +%@++o O&%",
"&%%$o o  %$+$++  oXXoo $$+$o +$&",
"$%$$ooXoo ++++ ooo@oXoo +$$ O+++",
"+$$+ X#@oo +  oo@@@@o@ooX$+O.O$+",
"$$  XX##@@oo@o%o&&o@@@@ooXX..++$",
"+ XXXoX##@@@oO$@&%$oo@o@oooO.o O",
" XX%@@X#@o@o.++$$$%$Xo@oo XXoooo",
"X+X&%@oXoooo .++$+$+Xoo  XXoo@@O",
"OO%X$o@ooX oo  .O++XoOXo   o@@%%",
"++O+XoooX  Xo@@   +X+OXoX Xoo@@&",
"$++ oo@XX X oo@@@oOO.OOXXXo&&@%$",
"$+ XXoXX   Xoo##o@ $OO. X&$&&%$%",
"+ XX#@@X+O o###@@o@@$OOOX$$$$$+$",
" ooX##@@++  ##@ooo@%$+O.$$+$++$+",
"ooX##o@o@+. @@@@$o%$+++OO$ ++++O",
"X$@#oo@oo+O o@o$+ $$$++OO o  +OO",
"$o@@$ooo++OO o+++$$+++OO oXXoX .",
"$ o$++o++O+OO +  $+$+OO%&o%X XX ",
" oX+$+O+$$++.     OO.O$&&&$$+ Xo",
"oX$+OOO++$$OO.X oX ..O$%%&%$$$oo"
};
